<svg xmlns="http://www.w3.org/2000/svg" width="121.701" height="83.495" viewBox="0 0 121.701 83.495">
    <defs>
        <style>
            .cls-1{fill:#001f4f;stroke:transparent;stroke-miterlimit:10}
        </style>
    </defs>
    <g id="Group_81305" transform="translate(-96.368 -96.49)">
        <g id="Group_59268" transform="translate(97.008 97)">
            <g id="Group_59267">
                <path id="Union_8" d="M23.545 79.344c-2.18-1.776-7.861-11.041-9.121-12v-.327c.931-.947 5.75-7.743 8.2-11.186-2.445 3.443-7.264 10.239-8.2 11.186-1.1-1.2-2.226-2.951-3.238-4.328L5.023 54.11C.949 48.358.8 43.147 4.794 37.591c2.827-3.943 7.554-4.067 9.46-5.327l.346-.007c6.2-1.823 12.411-4.075 18.607-6.1 2.86-.934 6.587-2.494 9.793-2.4 10.675.307 16.049 13.162 8.978 21.174-2.246 2.546-3.793 3.113-7.789 4.419-2.67.868-6.692 1.92-9.153 3.049l4.315 6.071c1.228 1.633 3.4 4.374 4.191 6.4a12.727 12.727 0 0 1-11.663 17.615 13.228 13.228 0 0 1-8.334-3.141zm.2-25.1c3.021-4.205 4-8.209 2.614-12.338 1.392 4.132.409 8.135-2.612 12.34zM.1 16.19a14.422 14.422 0 1 1 28.649-3.343 14.53 14.53 0 0 1-12.5 16.159 15.292 15.292 0 0 1-1.852.114A14.491 14.491 0 0 1 .1 16.19z" class="cls-1" transform="translate(65.241)"/>
                <path id="Union_9" d="M23.545 3.141c-2.18 1.776-7.861 11.041-9.121 12v.327c.931.947 5.75 7.744 8.195 11.186-2.445-3.443-7.264-10.239-8.195-11.186-1.1 1.2-2.226 2.951-3.238 4.328l-6.163 8.579C.949 34.127.8 39.338 4.794 44.894c2.827 3.943 7.554 4.067 9.46 5.327l.346.007c6.2 1.822 12.411 4.075 18.607 6.1 2.86.934 6.587 2.494 9.793 2.4 10.675-.307 16.049-13.162 8.978-21.174-2.246-2.546-3.793-3.113-7.789-4.419-2.67-.868-6.692-1.92-9.153-3.049l4.315-6.071c1.228-1.633 3.4-4.374 4.191-6.4A12.977 12.977 0 0 0 39.228 2.4 12.949 12.949 0 0 0 31.879 0a13.229 13.229 0 0 0-8.334 3.141zm.2 25.1c3.021 4.205 4 8.209 2.614 12.338 1.392-4.132.409-8.135-2.612-12.34zM.1 66.295a14.422 14.422 0 1 0 28.649 3.343 14.53 14.53 0 0 0-12.5-16.159 15.267 15.267 0 0 0-1.852-.114A14.491 14.491 0 0 0 .1 66.295z" class="cls-1" transform="rotate(180 27.59 41.242)"/>
            </g>
            <path id="Path_17633" fill="#001f4f" fill-rule="evenodd" d="M1977.872 2554.626c.831-.845 5.82-7.948 6.937-9.5 3-4.172 3.3-8.078.311-12.294-1.642-2.321-6.206-4.115-10.061-3.036a8.3 8.3 0 0 0-4.352 2.939c-2.973 4.134-2.862 8.01.17 12.29l4.585 6.383c.752 1.025 1.588 2.326 2.409 3.221z" transform="translate(-1917.401 -2472.14)"/>
        </g>
    </g>
</svg>
